#N canvas 229 125 426 475 10;
#X obj 29 242 pack f f f f f;
#X obj 29 85 unpack 0 0 0 0 0;
#X msg 29 271 list \$1\$2\$3\$4\$5;
#X obj 29 17 inlet;
#X obj 29 298 symbol2list;
#X obj 29 324 i;
#X obj 29 408 outlet;
#X text 130 38 routes and converts incoming asci numbers;
#X obj 29 128 jasci2char;
#X obj 52 152 jasci2char;
#X obj 75 173 jasci2char;
#X obj 98 193 jasci2char;
#X obj 122 213 jasci2char;
#X connect 0 0 2 0;
#X connect 1 0 8 0;
#X connect 1 1 9 0;
#X connect 1 2 10 0;
#X connect 1 3 11 0;
#X connect 1 4 12 0;
#X connect 2 0 4 0;
#X connect 3 0 1 0;
#X connect 4 0 5 0;
#X connect 5 0 6 0;
#X connect 8 0 0 0;
#X connect 9 0 0 1;
#X connect 10 0 0 2;
#X connect 11 0 0 3;
#X connect 12 0 0 4;
