#N canvas 1 61 523 300 10;
#X text 287 14 \$1 = where to receive from \; \$2 = brightness channel
\; \$3 = red channel \; \$4 = green channel \; \$5 = blue channel \;
;
#X obj 101 83 r \$1-1;
#X obj 189 85 r \$1-2;
#X obj 283 89 r \$1-3;
#X msg 101 156 print \$2c\$1w;
#X obj 101 246 outlet;
#X msg 189 156 print \$2c\$1w;
#X msg 283 153 print \$2c\$1w;
#X obj 101 131 pack f \$3;
#X obj 189 131 pack f \$4;
#X obj 283 128 pack f \$5;
#X obj 7 132 \$2;
#X msg 7 157 print \$1c255w;
#X obj 7 78 r loadbang;
#X obj 47 54 inlet;
#X obj 7 100 delay 10000;
#X connect 1 0 8 0;
#X connect 2 0 9 0;
#X connect 3 0 10 0;
#X connect 4 0 5 0;
#X connect 6 0 5 0;
#X connect 7 0 5 0;
#X connect 8 0 4 0;
#X connect 9 0 6 0;
#X connect 10 0 7 0;
#X connect 11 0 12 0;
#X connect 12 0 5 0;
#X connect 13 0 15 0;
#X connect 14 0 11 0;
#X connect 15 0 11 0;
