#N canvas 437 239 444 512 10;
#X text 242 36 q = cf/bw;
#X obj 33 22 inlet~;
#X obj 34 98 env~;
#X obj 34 121 dbtorms;
#X floatatom 19 398 5 0 0 0 - - -;
#X obj 107 99 env~;
#X obj 107 122 dbtorms;
#X floatatom 92 399 5 0 0 0 - - -;
#X obj 186 101 env~;
#X obj 186 124 dbtorms;
#X floatatom 170 401 5 0 0 0 - - -;
#X obj 34 168 clip 0 255;
#X obj 34 143 * 2550;
#X obj 19 273 i;
#X obj 107 170 clip 0 255;
#X obj 107 145 * 2550;
#X obj 92 275 i;
#X obj 186 172 clip 0 255;
#X obj 186 147 * 2550;
#X obj 171 277 i;
#X text 271 71 \$1 = send1 \; \$2 = send2 \; \$3 = send3;
#X obj 19 424 s \$1;
#X obj 92 424 s \$2;
#X obj 170 424 s \$3;
#X obj -18 206 loadbang;
#X obj 34 70 lop~ 100;
#X obj 107 74 bp~ 500 10;
#X obj 186 73 hip~ 1000;
#X obj 19 347 i;
#X obj 92 349 i;
#X obj 170 351 i;
#X obj 19 323 line;
#X obj 92 324 line;
#X obj 170 325 line;
#X obj -18 229 metro 25;
#X msg 19 297 \$1 25;
#X msg 92 298 \$1 25;
#X msg 170 299 \$1 25;
#X obj 170 376 change;
#X obj 92 376 change;
#X obj 19 374 change;
#X connect 1 0 25 0;
#X connect 1 0 26 0;
#X connect 1 0 27 0;
#X connect 2 0 3 0;
#X connect 3 0 12 0;
#X connect 4 0 21 0;
#X connect 5 0 6 0;
#X connect 6 0 15 0;
#X connect 7 0 22 0;
#X connect 8 0 9 0;
#X connect 9 0 18 0;
#X connect 10 0 23 0;
#X connect 11 0 13 1;
#X connect 12 0 11 0;
#X connect 13 0 35 0;
#X connect 14 0 16 1;
#X connect 15 0 14 0;
#X connect 16 0 36 0;
#X connect 17 0 19 1;
#X connect 18 0 17 0;
#X connect 19 0 37 0;
#X connect 24 0 34 0;
#X connect 25 0 2 0;
#X connect 26 0 5 0;
#X connect 27 0 8 0;
#X connect 28 0 40 0;
#X connect 29 0 39 0;
#X connect 30 0 38 0;
#X connect 31 0 28 0;
#X connect 32 0 29 0;
#X connect 33 0 30 0;
#X connect 34 0 19 0;
#X connect 34 0 16 0;
#X connect 34 0 13 0;
#X connect 35 0 31 0;
#X connect 36 0 32 0;
#X connect 37 0 33 0;
#X connect 38 0 10 0;
#X connect 39 0 7 0;
#X connect 40 0 4 0;
