#N canvas 446 104 670 487 10;
#X obj 35 14 inlet;
#X obj 35 76 s \$0-fileLength;
#X obj 145 78 s \$0-play;
#X obj 214 78 s \$0-scene;
#X obj 96 444 throw~ master1;
#X obj 96 416 tabread~ \$1-1-scene\$2;
#X obj 232 417 tabread~ \$1-2-scene\$2;
#X obj 374 415 tabread~ \$1-3-scene\$2;
#X obj 529 425 tabread~ \$1-4-scene\$2;
#X text 321 26 \$1 = \$0 \; \$2 = scene number \;;
#X obj 232 441 throw~ master2;
#X obj 374 439 throw~ master3;
#X obj 529 448 throw~ master4;
#X obj 96 100 r \$0-scene;
#X obj 96 122 sel \$2;
#X obj 35 51 route \$1-scene\$2 play scene;
#X obj 96 300 vline~;
#X obj 96 171 f;
#X obj 96 246 pack f f;
#X obj 96 197 t f f;
#X msg 96 271 0 \, \$1 \$2;
#X obj 96 324 *~ 1;
#X obj 154 244 del;
#X obj 96 146 t b b b;
#X msg 135 170 stop;
#X obj 154 273 s endOfFile;
#X obj 141 220 / 44.1;
#X msg 62 248 0;
#X connect 0 0 15 0;
#X connect 5 0 4 0;
#X connect 6 0 10 0;
#X connect 7 0 11 0;
#X connect 8 0 12 0;
#X connect 13 0 14 0;
#X connect 14 0 23 0;
#X connect 14 1 27 0;
#X connect 15 0 1 0;
#X connect 15 0 17 1;
#X connect 15 1 2 0;
#X connect 15 2 3 0;
#X connect 16 0 21 0;
#X connect 17 0 19 0;
#X connect 18 0 20 0;
#X connect 19 0 18 0;
#X connect 19 1 26 0;
#X connect 20 0 16 0;
#X connect 21 0 5 0;
#X connect 21 0 6 0;
#X connect 21 0 7 0;
#X connect 21 0 8 0;
#X connect 22 0 25 0;
#X connect 23 0 17 0;
#X connect 23 1 22 0;
#X connect 23 2 24 0;
#X connect 24 0 22 0;
#X connect 26 0 18 1;
#X connect 26 0 22 1;
#X connect 27 0 16 0;
