#N canvas 518 261 478 344 10;
#X declare -path Abstractions;
#X declare -path sample;
#X obj 162 8 bng 100 250 50 0 loadbang init-loadbang SET 24 50 0 30
-66577 -204786 -204786;
#N canvas 240 257 721 424 wiiboard-sensor-input 0;
#X floatatom 215 -73 5 0 0 0 - - -;
#X obj 305 -9 / 5000;
#X floatatom 215 117 5 0 0 0 - - -;
#X obj 305 12 clip 0 1;
#X obj 305 149 s wii-br;
#X floatatom 178 -73 5 0 0 0 - - -;
#X floatatom 178 117 5 0 0 0 - - -;
#X obj 238 12 clip 0 1;
#X obj 238 148 s wii-bl;
#X obj 238 -9 / 7000;
#X floatatom 141 -73 5 0 0 0 - - -;
#X floatatom 141 117 5 0 0 0 - - -;
#X obj 171 12 clip 0 1;
#X obj 171 148 s wii-tr;
#X obj 171 -9 / 6500;
#X floatatom 104 -73 5 0 0 0 - - -;
#X floatatom 104 117 5 0 0 0 - - -;
#X obj 104 12 clip 0 1;
#X obj 104 148 s wii-tl;
#X obj 104 -9 / 5500;
#X text 358 -31 <- note: these have been scaled to respond to my weight!
;
#X msg 104 -178 devices;
#N canvas 143 199 372 548 serialise 0;
#X obj 73 340 ascirouter;
#X obj 97 230 i;
#X obj 124 230 i;
#X obj 151 230 i;
#X obj 178 230 i;
#X obj 73 116 i;
#X obj 103 115 + 1;
#X obj 73 85 t b f;
#X obj 206 230 i;
#X obj 233 230 i;
#X msg 162 65 0;
#X obj 266 230 i;
#X obj 73 168 sel 7 6 5 4 3 2 1 0;
#X obj 73 265 pack f f f f f f f f;
#X msg 73 291 \$8 \$7 \$6 \$5 \$4 \$3;
#X obj 73 146 mod 8;
#X obj 73 35 inlet;
#X obj 73 395 outlet;
#X obj 73 230 i;
#X obj 73 316 route 49 50 51 52;
#X obj 142 341 ascirouter;
#X obj 142 396 outlet;
#X obj 212 342 ascirouter;
#X obj 212 397 outlet;
#X obj 287 343 ascirouter;
#X obj 287 398 outlet;
#X obj 179 32 r loadbang;
#X obj 191 59 delay 10000;
#X connect 0 0 17 0;
#X connect 1 0 13 1;
#X connect 2 0 13 2;
#X connect 3 0 13 3;
#X connect 4 0 13 4;
#X connect 5 0 6 0;
#X connect 5 0 15 0;
#X connect 6 0 5 1;
#X connect 7 0 5 0;
#X connect 7 1 3 1;
#X connect 7 1 4 1;
#X connect 7 1 2 1;
#X connect 7 1 1 1;
#X connect 7 1 9 1;
#X connect 7 1 8 1;
#X connect 7 1 11 1;
#X connect 7 1 18 1;
#X connect 8 0 13 5;
#X connect 9 0 13 6;
#X connect 10 0 5 1;
#X connect 11 0 13 7;
#X connect 12 0 18 0;
#X connect 12 1 1 0;
#X connect 12 2 2 0;
#X connect 12 3 3 0;
#X connect 12 4 4 0;
#X connect 12 5 8 0;
#X connect 12 6 9 0;
#X connect 12 7 11 0;
#X connect 13 0 14 0;
#X connect 14 0 19 0;
#X connect 15 0 12 0;
#X connect 16 0 7 0;
#X connect 18 0 13 0;
#X connect 19 0 0 0;
#X connect 19 1 20 0;
#X connect 19 2 22 0;
#X connect 19 3 24 0;
#X connect 20 0 21 0;
#X connect 22 0 23 0;
#X connect 24 0 25 0;
#X connect 26 0 27 0;
#X connect 27 0 10 0;
#X restore 104 -112 pd serialise;
#X msg 307 -180 close;
#X obj 104 -32 - 87723;
#X obj 171 -32 - 87723;
#X obj 238 -32 - 83886;
#X obj 305 -32 - 80685;
#X msg 171 -179 baud 38400;
#X obj 171 -234 r loadbang;
#X obj 171 -203 t b b;
#X msg 253 -181 open 1;
#X obj 104 -151 comport 1 38400;
#X connect 0 0 27 0;
#X connect 1 0 3 0;
#X connect 2 0 4 0;
#X connect 3 0 2 0;
#X connect 5 0 26 0;
#X connect 6 0 8 0;
#X connect 7 0 6 0;
#X connect 9 0 7 0;
#X connect 10 0 25 0;
#X connect 11 0 13 0;
#X connect 12 0 11 0;
#X connect 14 0 12 0;
#X connect 15 0 24 0;
#X connect 16 0 18 0;
#X connect 17 0 16 0;
#X connect 19 0 17 0;
#X connect 21 0 32 0;
#X connect 22 0 15 0;
#X connect 22 1 10 0;
#X connect 22 2 5 0;
#X connect 22 3 0 0;
#X connect 23 0 32 0;
#X connect 24 0 19 0;
#X connect 25 0 14 0;
#X connect 26 0 9 0;
#X connect 27 0 1 0;
#X connect 28 0 32 0;
#X connect 29 0 30 0;
#X connect 30 0 28 0;
#X connect 30 1 31 0;
#X connect 31 0 32 0;
#X connect 32 0 22 0;
#X coords 0 -1 1 1 150 35 1 100 100;
#X restore -6 12 pd wiiboard-sensor-input;
#N canvas 1 82 1009 633 soundfile-playback 0;
#X obj 30 69 table \$0-1-scene1;
#X obj 138 69 table \$0-2-scene1;
#X obj 247 69 table \$0-3-scene1;
#X obj 355 69 table \$0-4-scene1;
#X obj 30 150 table \$0-1-scene2;
#X obj 140 150 table \$0-2-scene2;
#X obj 250 150 table \$0-3-scene2;
#X obj 358 150 table \$0-4-scene2;
#X obj 31 228 table \$0-1-scene3;
#X obj 141 228 table \$0-2-scene3;
#X obj 249 228 table \$0-3-scene3;
#X obj 357 228 table \$0-4-scene3;
#N canvas 559 138 352 501 file-loader 0;
#X obj 85 -339 soundfiler;
#X obj 85 -448 pack f f f \$0;
#X obj 85 -628 until;
#X obj 85 -603 i;
#X obj 111 -603 + 1;
#X obj 112 -556 mod 4;
#X obj 85 -508 + 1;
#X obj 85 -577 t f f;
#X obj 112 -534 t f f;
#X obj 112 -508 + 1;
#X obj 139 -514 sel 0;
#X obj 139 -492 i;
#X obj 139 -470 + 1;
#X obj 85 -424 t a a;
#X obj 85 -315 list prepend;
#X obj 85 -288 list trim;
#X obj 85 -741 r loadbang;
#X obj 169 -741 inlet;
#X obj 85 -700 t b b;
#X msg 112 -678 0;
#X obj 85 -266 s to-playback;
#X msg 85 -649 24;
#X text 129 -652 <- change this if the number scenes;
#X text 153 -635 changes;
#X msg 112 -372 \$4-scene\$3;
#X msg 85 -396 read -resize \$1.wav \$4-\$2-scene\$3;
#X connect 0 0 14 0;
#X connect 1 0 13 0;
#X connect 2 0 3 0;
#X connect 3 0 4 0;
#X connect 3 0 7 0;
#X connect 4 0 3 1;
#X connect 5 0 8 0;
#X connect 6 0 1 0;
#X connect 7 0 6 0;
#X connect 7 1 5 0;
#X connect 8 0 9 0;
#X connect 8 1 10 0;
#X connect 9 0 1 1;
#X connect 10 0 11 0;
#X connect 11 0 12 0;
#X connect 12 0 11 1;
#X connect 12 0 1 2;
#X connect 13 0 25 0;
#X connect 13 1 24 0;
#X connect 14 0 15 0;
#X connect 15 0 20 0;
#X connect 16 0 18 0;
#X connect 17 0 18 0;
#X connect 18 0 21 0;
#X connect 18 1 19 0;
#X connect 19 0 3 1;
#X connect 19 0 11 1;
#X connect 21 0 2 0;
#X connect 24 0 14 1;
#X connect 25 0 0 0;
#X restore 630 301 pd file-loader;
#X obj 630 280 bng 15 250 50 0 empty empty empty 17 7 0 10 -262144
-1 -1;
#X msg 635 103 play 1;
#X obj 31 18 r to-playback;
#X obj 635 131 s to-playback;
#X msg 686 102 scene 1;
#X obj 30 102 r to-playback;
#X msg 745 102 scene 2;
#X obj 31 177 r to-playback;
#X text 487 41 SCENE 1;
#X text 486 137 SCENE 2;
#X text 489 228 SCENE 3;
#X text 726 301 <- automatically loads audio files(.aif). Files should
be named 1.aif \, 2.aif \, 3.aif and 4.aif for SCENE 1 Files should
be named 5.aif \, 6.aif \, etc for SCENE 2;
#X text 780 122 change scenes here;
#X msg 804 103 scene 3;
#X obj 635 48 r loadbang;
#X obj 635 70 del 2000;
#X obj 32 268 r to-playback;
#X text 489 318 SCENE 4;
#X obj 357 318 table \$0-4-scene4;
#X obj 249 318 table \$0-3-scene4;
#X obj 141 318 table \$0-2-scene4;
#X obj 31 318 table \$0-1-scene4;
#X obj 630 253 r file-reload;
#N canvas 479 221 450 409 clear 0;
#X obj 95 -408 pack f f f \$0;
#X obj 95 -588 until;
#X obj 95 -563 i;
#X obj 121 -563 + 1;
#X obj 122 -516 mod 4;
#X obj 95 -468 + 1;
#X obj 95 -537 t f f;
#X obj 122 -494 t f f;
#X obj 122 -468 + 1;
#X obj 149 -474 sel 0;
#X obj 149 -452 i;
#X obj 149 -430 + 1;
#X obj 95 -660 t b b;
#X msg 122 -638 0;
#X msg 95 -609 16;
#X obj 76 -680 bng 15 250 50 0 empty empty empty 17 7 0 10 -262144
-1 -1;
#X msg 122 -332 \; \$4-\$2-scene\$3 const 0;
#X connect 0 0 16 0;
#X connect 1 0 2 0;
#X connect 2 0 3 0;
#X connect 2 0 6 0;
#X connect 3 0 2 1;
#X connect 4 0 7 0;
#X connect 5 0 0 0;
#X connect 6 0 5 0;
#X connect 6 1 4 0;
#X connect 7 0 8 0;
#X connect 7 1 9 0;
#X connect 8 0 0 1;
#X connect 9 0 10 0;
#X connect 10 0 11 0;
#X connect 11 0 10 1;
#X connect 11 0 0 2;
#X connect 12 0 14 0;
#X connect 12 1 13 0;
#X connect 13 0 2 1;
#X connect 13 0 10 1;
#X connect 14 0 1 0;
#X connect 15 0 12 0;
#X restore 762 216 pd clear;
#X obj 22 348 r to-playback;
#X obj 22 458 r to-playback;
#X text 478 397 SCENE 5;
#X text 479 508 SCENE 6;
#X obj 347 398 table \$0-4-scene5;
#X obj 239 398 table \$0-3-scene5;
#X obj 133 398 table \$0-2-scene5;
#X obj 22 398 table \$0-1-scene5;
#X obj 21 509 table \$0-1-scene6;
#X obj 131 508 table \$0-2-scene6;
#X obj 239 507 table \$0-3-scene6;
#X obj 348 509 table \$0-4-scene6;
#X text 497 60 1-4;
#X text 494 165 5-8;
#X obj 31 206 playback~ \$0 3;
#X obj 31 46 playback~ \$0 1;
#X obj 30 130 playback~ \$0 2;
#X obj 32 296 playback~ \$0 4;
#X obj 22 376 playback~ \$0 5;
#X obj 22 486 playback~ \$0 6;
#X connect 13 0 12 0;
#X connect 14 0 16 0;
#X connect 15 0 52 0;
#X connect 17 0 16 0;
#X connect 18 0 53 0;
#X connect 19 0 16 0;
#X connect 20 0 51 0;
#X connect 26 0 16 0;
#X connect 27 0 28 0;
#X connect 28 0 14 0;
#X connect 29 0 54 0;
#X connect 35 0 13 0;
#X connect 37 0 55 0;
#X connect 38 0 56 0;
#X restore -6 208 pd soundfile-playback;
#N canvas 103 295 450 386 file-playback-randomiser 0;
#X floatatom 103 121 5 0 0 1 current_scene - -;
#X obj -4 2 r loadbang;
#X obj -5 40 bng 15 250 50 0 empty empty empty 17 7 0 10 -262144 -1
-1;
#X obj 143 -1 loadbang;
#X msg 137 35 6;
#X obj -46 -36 r endOfFile;
#X obj -14 188 + 1;
#X msg -14 210 scene \$1;
#X obj -14 232 s to-playback;
#X obj 88 -21 print endoffile;
#X floatatom 67 164 5 0 0 0 - - -;
#X obj -4 132 t b b;
#X msg 18 160 clear;
#X obj 80 207 print;
#X obj -10 91 urn 6;
#X floatatom 136 54 5 1 4 1 number_of_scenes(1-4) - -;
#X connect 1 0 2 0;
#X connect 2 0 14 0;
#X connect 3 0 4 0;
#X connect 4 0 15 0;
#X connect 5 0 2 0;
#X connect 5 0 9 0;
#X connect 6 0 7 0;
#X connect 6 0 0 0;
#X connect 7 0 8 0;
#X connect 7 0 13 0;
#X connect 10 0 7 0;
#X connect 11 0 14 0;
#X connect 11 1 12 0;
#X connect 12 0 14 0;
#X connect 14 0 6 0;
#X connect 14 1 11 0;
#X connect 15 0 14 1;
#X coords 0 -1 1 1 200 40 1 100 100;
#X restore -6 139 pd file-playback-randomiser;
#X obj 206 139 bng 100 250 50 0 file-reload empty file_reload 0 50
0 15 -66577 -204786 -204786;
#N canvas 319 358 582 316 dmx-lights-controller 0;
#X text 281 287 <- send control messages to DMR lights;
#X obj 163 227 r \$0-comport;
#X msg 428 262 devices;
#X msg 381 261 close;
#X obj 249 181 r loadbang;
#X msg 330 260 open 0;
#X msg 249 258 baud 115200;
#X obj 163 285 comport 0 115200;
#X text -40 245 1st light;
#X text 162 89 <- arguments 2-5 select the DMX channel to send on;
#X text -23 185 2nd light;
#X text -4 124 3rd light;
#X text 16 64 4th light;
#X obj -45 264 dmx-router d 1 2 3 4;
#X obj -28 204 dmx-router b 9 10 11 12;
#X obj -11 143 dmx-router p 17 18 19 20;
#X obj 6 83 dmx-router l 25 26 27 28;
#X obj -45 33 t b b b b;
#X obj -45 7 bng 15 250 50 0 empty empty empty 17 7 0 10 -262144 -1
-1;
#X obj -45 285 s \$0-comport;
#X obj 249 212 t b b;
#X obj -28 226 s \$0-comport;
#X obj -11 164 s \$0-comport;
#X obj 6 104 s \$0-comport;
#X connect 1 0 7 0;
#X connect 2 0 7 0;
#X connect 3 0 7 0;
#X connect 4 0 20 0;
#X connect 5 0 7 0;
#X connect 6 0 7 0;
#X connect 13 0 19 0;
#X connect 14 0 21 0;
#X connect 15 0 22 0;
#X connect 16 0 23 0;
#X connect 17 0 13 0;
#X connect 17 1 14 0;
#X connect 17 2 15 0;
#X connect 17 3 16 0;
#X connect 18 0 17 0;
#X connect 20 0 6 0;
#X connect 20 1 5 0;
#X restore -6 53 pd dmx-lights-controller;
#N canvas 73 205 715 376 audio---- 0;
#X obj 61 30 catch~ master1;
#X obj 179 30 catch~ master2;
#X obj 297 30 catch~ master3;
#X obj 408 30 catch~ master4;
#N canvas 2 131 568 523 spatialiser-tl 0;
#X obj 78 38 inlet~;
#X obj 80 408 outlet~;
#X obj 95 332 *~;
#X obj 94 356 *~;
#X obj 80 382 *~;
#X obj 95 285 sig~;
#X obj 95 307 lop~ 50;
#X obj 213 280 sig~;
#X obj 213 302 lop~ 50;
#X obj 213 256 r wii-tr;
#X obj 292 287 sig~;
#X obj 292 309 lop~ 50;
#X obj 364 289 sig~;
#X obj 364 311 lop~ 50;
#X obj 292 263 r wii-bl;
#X obj 364 265 r wii-br;
#X obj 95 105 r wii-tr;
#X obj 110 130 r wii-bl;
#X obj 110 172 r wii-br;
#X obj 95 151 +;
#X obj 95 193 +;
#X obj 95 215 / 3;
#X obj 95 258 -;
#X floatatom 132 287 5 0 0 0 - - -;
#X msg 95 236 1 \$1;
#X obj 199 407 outlet~;
#X obj 214 331 *~;
#X obj 213 355 *~;
#X obj 199 381 *~;
#X obj 278 412 outlet~;
#X obj 293 336 *~;
#X obj 292 360 *~;
#X obj 278 386 *~;
#X obj 350 412 outlet~;
#X obj 365 336 *~;
#X obj 364 360 *~;
#X obj 350 386 *~;
#X text 249 21 tl;
#X connect 0 0 4 0;
#X connect 0 0 28 0;
#X connect 0 0 32 0;
#X connect 0 0 36 0;
#X connect 2 0 3 0;
#X connect 2 0 3 1;
#X connect 3 0 4 1;
#X connect 4 0 1 0;
#X connect 5 0 6 0;
#X connect 6 0 2 0;
#X connect 6 0 2 1;
#X connect 7 0 8 0;
#X connect 8 0 26 0;
#X connect 8 0 26 1;
#X connect 9 0 7 0;
#X connect 10 0 11 0;
#X connect 11 0 30 0;
#X connect 11 0 30 1;
#X connect 12 0 13 0;
#X connect 13 0 34 0;
#X connect 13 0 34 1;
#X connect 14 0 10 0;
#X connect 15 0 12 0;
#X connect 16 0 19 0;
#X connect 17 0 19 1;
#X connect 18 0 20 1;
#X connect 19 0 20 0;
#X connect 20 0 21 0;
#X connect 21 0 24 0;
#X connect 22 0 23 0;
#X connect 22 0 5 0;
#X connect 24 0 22 0;
#X connect 26 0 27 0;
#X connect 26 0 27 1;
#X connect 27 0 28 1;
#X connect 28 0 25 0;
#X connect 30 0 31 0;
#X connect 30 0 31 1;
#X connect 31 0 32 1;
#X connect 32 0 29 0;
#X connect 34 0 35 0;
#X connect 34 0 35 1;
#X connect 35 0 36 1;
#X connect 36 0 33 0;
#X restore 60 72 pd spatialiser-tl;
#N canvas 76 145 568 523 spatialiser-tr 0;
#X obj 78 38 inlet~;
#X obj 184 413 outlet~;
#X obj 199 337 *~;
#X obj 198 361 *~;
#X obj 184 387 *~;
#X obj 199 290 sig~;
#X obj 199 312 lop~ 50;
#X obj 93 295 sig~;
#X obj 93 317 lop~ 50;
#X obj 292 287 sig~;
#X obj 292 309 lop~ 50;
#X obj 364 289 sig~;
#X obj 364 311 lop~ 50;
#X obj 292 263 r wii-bl;
#X obj 364 265 r wii-br;
#X obj 214 135 r wii-bl;
#X obj 214 177 r wii-br;
#X obj 199 156 +;
#X obj 199 198 +;
#X obj 199 220 / 3;
#X obj 199 263 -;
#X floatatom 236 292 5 0 0 0 - - -;
#X msg 199 241 1 \$1;
#X obj 79 422 outlet~;
#X obj 94 346 *~;
#X obj 93 370 *~;
#X obj 79 396 *~;
#X obj 278 412 outlet~;
#X obj 293 336 *~;
#X obj 292 360 *~;
#X obj 278 386 *~;
#X obj 350 412 outlet~;
#X obj 365 336 *~;
#X obj 364 360 *~;
#X obj 350 386 *~;
#X obj 199 110 r wii-tl;
#X obj 93 271 r wii-tl;
#X connect 0 0 4 0;
#X connect 0 0 26 0;
#X connect 0 0 30 0;
#X connect 0 0 34 0;
#X connect 2 0 3 0;
#X connect 2 0 3 1;
#X connect 3 0 4 1;
#X connect 4 0 1 0;
#X connect 5 0 6 0;
#X connect 6 0 2 0;
#X connect 6 0 2 1;
#X connect 7 0 8 0;
#X connect 8 0 24 0;
#X connect 8 0 24 1;
#X connect 9 0 10 0;
#X connect 10 0 28 0;
#X connect 10 0 28 1;
#X connect 11 0 12 0;
#X connect 12 0 32 0;
#X connect 12 0 32 1;
#X connect 13 0 9 0;
#X connect 14 0 11 0;
#X connect 15 0 17 1;
#X connect 16 0 18 1;
#X connect 17 0 18 0;
#X connect 18 0 19 0;
#X connect 19 0 22 0;
#X connect 20 0 21 0;
#X connect 20 0 5 0;
#X connect 22 0 20 0;
#X connect 24 0 25 0;
#X connect 24 0 25 1;
#X connect 25 0 26 1;
#X connect 26 0 23 0;
#X connect 28 0 29 0;
#X connect 28 0 29 1;
#X connect 29 0 30 1;
#X connect 30 0 27 0;
#X connect 32 0 33 0;
#X connect 32 0 33 1;
#X connect 33 0 34 1;
#X connect 34 0 31 0;
#X connect 35 0 17 0;
#X connect 36 0 7 0;
#X restore 178 73 pd spatialiser-tr;
#N canvas 78 150 568 523 spatialiser-bl 0;
#X obj 78 38 inlet~;
#X obj 286 427 outlet~;
#X obj 301 351 *~;
#X obj 300 375 *~;
#X obj 286 401 *~;
#X obj 301 304 sig~;
#X obj 301 326 lop~ 50;
#X obj 93 295 sig~;
#X obj 93 317 lop~ 50;
#X obj 192 297 sig~;
#X obj 192 319 lop~ 50;
#X obj 448 309 sig~;
#X obj 448 331 lop~ 50;
#X obj 448 285 r wii-br;
#X obj 316 191 r wii-br;
#X obj 301 170 +;
#X obj 301 212 +;
#X obj 301 234 / 3;
#X obj 301 277 -;
#X floatatom 338 306 5 0 0 0 - - -;
#X msg 301 255 1 \$1;
#X obj 79 422 outlet~;
#X obj 94 346 *~;
#X obj 93 370 *~;
#X obj 79 396 *~;
#X obj 178 422 outlet~;
#X obj 193 346 *~;
#X obj 192 370 *~;
#X obj 178 396 *~;
#X obj 434 432 outlet~;
#X obj 449 356 *~;
#X obj 448 380 *~;
#X obj 434 406 *~;
#X obj 301 124 r wii-tl;
#X obj 93 271 r wii-tl;
#X obj 316 149 r wii-tr;
#X obj 192 273 r wii-tr;
#X connect 0 0 4 0;
#X connect 0 0 24 0;
#X connect 0 0 28 0;
#X connect 0 0 32 0;
#X connect 2 0 3 0;
#X connect 2 0 3 1;
#X connect 3 0 4 1;
#X connect 4 0 1 0;
#X connect 5 0 6 0;
#X connect 6 0 2 0;
#X connect 6 0 2 1;
#X connect 7 0 8 0;
#X connect 8 0 22 0;
#X connect 8 0 22 1;
#X connect 9 0 10 0;
#X connect 10 0 26 0;
#X connect 10 0 26 1;
#X connect 11 0 12 0;
#X connect 12 0 30 0;
#X connect 12 0 30 1;
#X connect 13 0 11 0;
#X connect 14 0 16 1;
#X connect 15 0 16 0;
#X connect 16 0 17 0;
#X connect 17 0 20 0;
#X connect 18 0 19 0;
#X connect 18 0 5 0;
#X connect 20 0 18 0;
#X connect 22 0 23 0;
#X connect 22 0 23 1;
#X connect 23 0 24 1;
#X connect 24 0 21 0;
#X connect 26 0 27 0;
#X connect 26 0 27 1;
#X connect 27 0 28 1;
#X connect 28 0 25 0;
#X connect 30 0 31 0;
#X connect 30 0 31 1;
#X connect 31 0 32 1;
#X connect 32 0 29 0;
#X connect 33 0 15 0;
#X connect 34 0 7 0;
#X connect 35 0 15 1;
#X connect 36 0 9 0;
#X restore 298 73 pd spatialiser-bl;
#N canvas 432 166 568 523 spatialiser-br 0;
#X obj 78 38 inlet~;
#X obj 372 433 outlet~;
#X obj 387 357 *~;
#X obj 386 381 *~;
#X obj 372 407 *~;
#X obj 387 310 sig~;
#X obj 387 332 lop~ 50;
#X obj 93 295 sig~;
#X obj 93 317 lop~ 50;
#X obj 192 297 sig~;
#X obj 192 319 lop~ 50;
#X obj 289 298 sig~;
#X obj 289 320 lop~ 50;
#X obj 387 176 +;
#X obj 387 218 +;
#X obj 387 240 / 3;
#X obj 387 283 -;
#X floatatom 424 312 5 0 0 0 - - -;
#X msg 387 261 1 \$1;
#X obj 79 422 outlet~;
#X obj 94 346 *~;
#X obj 93 370 *~;
#X obj 79 396 *~;
#X obj 178 422 outlet~;
#X obj 193 346 *~;
#X obj 192 370 *~;
#X obj 178 396 *~;
#X obj 275 421 outlet~;
#X obj 290 345 *~;
#X obj 289 369 *~;
#X obj 275 395 *~;
#X obj 387 130 r wii-tl;
#X obj 93 271 r wii-tl;
#X obj 289 274 r wii-bl;
#X obj 402 155 r wii-tr;
#X obj 192 273 r wii-tr;
#X obj 402 197 r wii-bl;
#X connect 0 0 4 0;
#X connect 0 0 22 0;
#X connect 0 0 26 0;
#X connect 0 0 30 0;
#X connect 2 0 3 0;
#X connect 2 0 3 1;
#X connect 3 0 4 1;
#X connect 4 0 1 0;
#X connect 5 0 6 0;
#X connect 6 0 2 0;
#X connect 6 0 2 1;
#X connect 7 0 8 0;
#X connect 8 0 20 0;
#X connect 8 0 20 1;
#X connect 9 0 10 0;
#X connect 10 0 24 0;
#X connect 10 0 24 1;
#X connect 11 0 12 0;
#X connect 12 0 28 0;
#X connect 12 0 28 1;
#X connect 13 0 14 0;
#X connect 14 0 15 0;
#X connect 15 0 18 0;
#X connect 16 0 17 0;
#X connect 16 0 5 0;
#X connect 18 0 16 0;
#X connect 20 0 21 0;
#X connect 20 0 21 1;
#X connect 21 0 22 1;
#X connect 22 0 19 0;
#X connect 24 0 25 0;
#X connect 24 0 25 1;
#X connect 25 0 26 1;
#X connect 26 0 23 0;
#X connect 28 0 29 0;
#X connect 28 0 29 1;
#X connect 29 0 30 1;
#X connect 30 0 27 0;
#X connect 31 0 13 0;
#X connect 32 0 7 0;
#X connect 33 0 11 0;
#X connect 34 0 13 1;
#X connect 35 0 9 0;
#X connect 36 0 14 1;
#X restore 409 71 pd spatialiser-br;
#X obj 59 289 outlet~;
#X obj 210 290 outlet~;
#X obj 363 291 outlet~;
#X obj 507 293 outlet~;
#X obj 537 204 filters d-1 d-2 d-3;
#X obj 564 122 filters l-1 l-2 l-3;
#X obj 545 176 filters b-1 b-2 b-3;
#X obj 555 149 filters p-1 p-2 p-3;
#X connect 0 0 4 0;
#X connect 1 0 5 0;
#X connect 2 0 6 0;
#X connect 3 0 7 0;
#X connect 4 0 8 0;
#X connect 4 0 12 0;
#X connect 4 1 9 0;
#X connect 4 1 14 0;
#X connect 4 2 10 0;
#X connect 4 2 15 0;
#X connect 4 3 11 0;
#X connect 4 3 13 0;
#X connect 5 0 8 0;
#X connect 5 0 12 0;
#X connect 5 1 9 0;
#X connect 5 1 14 0;
#X connect 5 2 10 0;
#X connect 5 2 15 0;
#X connect 5 3 11 0;
#X connect 5 3 13 0;
#X connect 6 0 8 0;
#X connect 6 0 12 0;
#X connect 6 1 9 0;
#X connect 6 1 14 0;
#X connect 6 2 10 0;
#X connect 6 2 15 0;
#X connect 6 3 11 0;
#X connect 6 3 13 0;
#X connect 7 0 8 0;
#X connect 7 0 12 0;
#X connect 7 1 9 0;
#X connect 7 1 14 0;
#X connect 7 2 10 0;
#X connect 7 2 15 0;
#X connect 7 3 11 0;
#X connect 7 3 13 0;
#X restore -5 235 pd audio----;
#X text 321 174 <- reloads soundfiles;
#X text 272 34 <- connects comports to Arduinos;
#N canvas 547 177 205 108 declares+loadbang 0;
#X obj 13 -9 loadbang;
#X msg 13 13 \; pd dsp 1;
#X obj 87 16 s init-loadbang;
#X obj 13 -54 declare -path Abstractions;
#X obj 13 -34 declare -path sample;
#X connect 0 0 1 0;
#X connect 0 0 2 0;
#X restore -4 -31 pd declares+loadbang;
#X obj -5 276 dac~ 1 2 3 4;
#X connect 6 0 10 0;
#X connect 6 1 10 1;
#X connect 6 2 10 2;
#X connect 6 3 10 3;
